HIERARCHY
ROOT Root
{
  OFFSET 0.0 0.0 0.0
  CHANNELS 6 Xposition Yposition Zposition Zrotation Yrotation Xrotation
  JOINT Hips
  {
    OFFSET 0.0 100.0 0.0
    CHANNELS 6 Xposition Yposition Zposition Zrotation Yrotation Xrotation
    JOINT Spine1
    {
      OFFSET -0.013727 5.003763 -0.053727
      CHANNELS 3 Zrotation Yrotation Xrotation
      JOINT Spine2
      {
        OFFSET -0.0 7.125301 -0.029825
        CHANNELS 3 Zrotation Yrotation Xrotation
        JOINT Chest
        {
          OFFSET -1e-06 7.550063 -0.815971
          CHANNELS 3 Zrotation Yrotation Xrotation
          JOINT Neck1
          {
            OFFSET -0.181677 26.311295 -0.553348
            CHANNELS 3 Zrotation Yrotation Xrotation
            JOINT Neck2
            {
              OFFSET -3e-06 7.709397 2.302585
              CHANNELS 3 Zrotation Yrotation Xrotation
              JOINT Head
              {
                OFFSET -5e-06 6.128916 1.953709
                CHANNELS 3 Zrotation Yrotation Xrotation
                JOINT HeadEnd
                {
                  OFFSET 0.003598 16.065403 -1.835379
                  CHANNELS 3 Zrotation Yrotation Xrotation
                }
                JOINT Jaw
                {
                  OFFSET 0.002637 0.475592 3.094941
                  CHANNELS 3 Zrotation Yrotation Xrotation
                }
                JOINT LeftEye
                {
                  OFFSET 3.206381 5.380205 7.586883
                  CHANNELS 3 Zrotation Yrotation Xrotation
                }
                JOINT RightEye
                {
                  OFFSET -3.22244 5.361869 7.558234
                  CHANNELS 3 Zrotation Yrotation Xrotation
                }
              }
            }
          }
          JOINT LeftShoulder
          {
            OFFSET 1.621652 23.237164 5.113413
            CHANNELS 3 Zrotation Yrotation Xrotation
            JOINT LeftArm
            {
              OFFSET 14.919846 2e-06 -5.502326
              CHANNELS 3 Zrotation Yrotation Xrotation
              JOINT LeftForeArm
              {
                OFFSET 28.739307 0.0 -0.002588
                CHANNELS 3 Zrotation Yrotation Xrotation
                JOINT LeftHand
                {
                  OFFSET 27.093981 -1e-06 0.002609
                  CHANNELS 3 Zrotation Yrotation Xrotation
                  JOINT LeftHandThumb1
                  {
                    OFFSET 2.276482 -1.392045 3.191413
                    CHANNELS 3 Zrotation Yrotation Xrotation
                    JOINT LeftHandThumb2
                    {
                      OFFSET 4.012836 -1.828127 1.641654
                      CHANNELS 3 Zrotation Yrotation Xrotation
                      JOINT LeftHandThumb3
                      {
                        OFFSET 2.798515 0.0 -3e-06
                        CHANNELS 3 Zrotation Yrotation Xrotation
                        JOINT LeftHandThumbEnd
                        {
                          OFFSET 3.180793 -4e-06 4e-06
                          CHANNELS 3 Zrotation Yrotation Xrotation
                        }
                      }
                    }
                  }
                  JOINT LeftHandIndex1
                  {
                    OFFSET 3.247555 -0.531998 2.296169
                    CHANNELS 3 Zrotation Yrotation Xrotation
                    JOINT LeftHandIndex2
                    {
                      OFFSET 6.364578 0.01206 0.1786
                      CHANNELS 3 Zrotation Yrotation Xrotation
                      JOINT LeftHandIndex3
                      {
                        OFFSET 3.662364 0.0 0.0
                        CHANNELS 3 Zrotation Yrotation Xrotation
                        JOINT LeftHandIndex4
                        {
                          OFFSET 2.329242 4e-06 4e-06
                          CHANNELS 3 Zrotation Yrotation Xrotation
                          JOINT LeftHandIndexEnd
                          {
                            OFFSET 2.759615 -0.180537 -0.113024
                            CHANNELS 3 Zrotation Yrotation Xrotation
                          }
                        }
                      }
                    }
                  }
                  JOINT LeftHandMiddle1
                  {
                    OFFSET 3.163495 0.240981 1.000332
                    CHANNELS 3 Zrotation Yrotation Xrotation
                    JOINT LeftHandMiddle2
                    {
                      OFFSET 6.19078 -0.259278 -1.002548
                      CHANNELS 3 Zrotation Yrotation Xrotation
                      JOINT LeftHandMiddle3
                      {
                        OFFSET 4.35652 -4e-06 -1e-06
                        CHANNELS 3 Zrotation Yrotation Xrotation
                        JOINT LeftHandMiddle4
                        {
                          OFFSET 2.996877 -8e-06 0.0
                          CHANNELS 3 Zrotation Yrotation Xrotation
                          JOINT LeftHandMiddleEnd
                          {
                            OFFSET 2.304287 -0.294569 -0.031741
                            CHANNELS 3 Zrotation Yrotation Xrotation
                          }
                        }
                      }
                    }
                  }
                  JOINT LeftHandRing1
                  {
                    OFFSET 2.882643 -0.053652 -0.322543
                    CHANNELS 3 Zrotation Yrotation Xrotation
                    JOINT LeftHandRing2
                    {
                      OFFSET 5.854541 -0.486202 -1.373841
                      CHANNELS 3 Zrotation Yrotation Xrotation
                      JOINT LeftHandRing3
                      {
                        OFFSET 4.350578 0.0 3e-06
                        CHANNELS 3 Zrotation Yrotation Xrotation
                        JOINT LeftHandRing4
                        {
                          OFFSET 2.651321 7e-06 2e-06
                          CHANNELS 3 Zrotation Yrotation Xrotation
                          JOINT LeftHandRingEnd
                          {
                            OFFSET 1.936105 0.077687 -7.1e-05
                            CHANNELS 3 Zrotation Yrotation Xrotation
                          }
                        }
                      }
                    }
                  }
                  JOINT LeftHandPinky1
                  {
                    OFFSET 2.8655 -0.310005 -1.600378
                    CHANNELS 3 Zrotation Yrotation Xrotation
                    JOINT LeftHandPinky2
                    {
                      OFFSET 5.087849 -1.331141 -1.77123
                      CHANNELS 3 Zrotation Yrotation Xrotation
                      JOINT LeftHandPinky3
                      {
                        OFFSET 3.070974 4e-06 0.0
                        CHANNELS 3 Zrotation Yrotation Xrotation
                        JOINT LeftHandPinky4
                        {
                          OFFSET 1.549672 0.0 1e-06
                          CHANNELS 3 Zrotation Yrotation Xrotation
                          JOINT LeftHandPinkyEnd
                          {
                            OFFSET 1.944893 -0.157802 0.057219
                            CHANNELS 3 Zrotation Yrotation Xrotation
                          }
                        }
                      }
                    }
                  }
                }
              }
            }
          }
          JOINT RightShoulder
          {
            OFFSET -1.380118 23.180309 5.214158
            CHANNELS 3 Zrotation Yrotation Xrotation
            JOINT RightArm
            {
              OFFSET -15.037196 1.2e-05 -5.545604
              CHANNELS 3 Zrotation Yrotation Xrotation
              JOINT RightForeArm
              {
                OFFSET -28.736639 2e-06 -0.002597
                CHANNELS 3 Zrotation Yrotation Xrotation
                JOINT RightHand
                {
                  OFFSET -27.133619 -0.0 0.002613
                  CHANNELS 3 Zrotation Yrotation Xrotation
                  JOINT RightHandThumb1
                  {
                    OFFSET -2.274032 -1.383988 3.163127
                    CHANNELS 3 Zrotation Yrotation Xrotation
                    JOINT RightHandThumb2
                    {
                      OFFSET -4.011429 -1.827466 1.640914
                      CHANNELS 3 Zrotation Yrotation Xrotation
                      JOINT RightHandThumb3
                      {
                        OFFSET -2.794935 -4e-06 -3e-06
                        CHANNELS 3 Zrotation Yrotation Xrotation
                        JOINT RightHandThumbEnd
                        {
                          OFFSET -3.183852 4e-06 1e-06
                          CHANNELS 3 Zrotation Yrotation Xrotation
                        }
                      }
                    }
                  }
                  JOINT RightHandIndex1
                  {
                    OFFSET -3.253266 -0.520057 2.282866
                    CHANNELS 3 Zrotation Yrotation Xrotation
                    JOINT RightHandIndex2
                    {
                      OFFSET -6.341917 0.012471 0.178266
                      CHANNELS 3 Zrotation Yrotation Xrotation
                      JOINT RightHandIndex3
                      {
                        OFFSET -3.654871 -8e-06 -0.0
                        CHANNELS 3 Zrotation Yrotation Xrotation
                        JOINT RightHandIndex4
                        {
                          OFFSET -2.327586 0.0 1e-06
                          CHANNELS 3 Zrotation Yrotation Xrotation
                          JOINT RightHandIndexEnd
                          {
                            OFFSET -2.76179 -0.180656 -0.113078
                            CHANNELS 3 Zrotation Yrotation Xrotation
                          }
                        }
                      }
                    }
                  }
                  JOINT RightHandMiddle1
                  {
                    OFFSET -3.168106 0.246593 1.00103
                    CHANNELS 3 Zrotation Yrotation Xrotation
                    JOINT RightHandMiddle2
                    {
                      OFFSET -6.180828 -0.258836 -1.000895
                      CHANNELS 3 Zrotation Yrotation Xrotation
                      JOINT RightHandMiddle3
                      {
                        OFFSET -4.348901 0.0 -0.0
                        CHANNELS 3 Zrotation Yrotation Xrotation
                        JOINT RightHandMiddle4
                        {
                          OFFSET -3.00024 -4e-06 -2e-06
                          CHANNELS 3 Zrotation Yrotation Xrotation
                          JOINT RightHandMiddleEnd
                          {
                            OFFSET -2.30252 -0.29437 -0.031706
                            CHANNELS 3 Zrotation Yrotation Xrotation
                          }
                        }
                      }
                    }
                  }
                  JOINT RightHandRing1
                  {
                    OFFSET -2.88569 -0.067952 -0.308858
                    CHANNELS 3 Zrotation Yrotation Xrotation
                    JOINT RightHandRing2
                    {
                      OFFSET -5.854198 -0.48613 -1.373731
                      CHANNELS 3 Zrotation Yrotation Xrotation
                      JOINT RightHandRing3
                      {
                        OFFSET -4.33881 -4e-06 -0.0
                        CHANNELS 3 Zrotation Yrotation Xrotation
                        JOINT RightHandRing4
                        {
                          OFFSET -2.654903 -4e-06 4e-06
                          CHANNELS 3 Zrotation Yrotation Xrotation
                          JOINT RightHandRingEnd
                          {
                            OFFSET -1.933568 0.077527 -5.2e-05
                            CHANNELS 3 Zrotation Yrotation Xrotation
                          }
                        }
                      }
                    }
                  }
                  JOINT RightHandPinky1
                  {
                    OFFSET -2.866425 -0.342796 -1.584145
                    CHANNELS 3 Zrotation Yrotation Xrotation
                    JOINT RightHandPinky2
                    {
                      OFFSET -5.091371 -1.332055 -1.772385
                      CHANNELS 3 Zrotation Yrotation Xrotation
                      JOINT RightHandPinky3
                      {
                        OFFSET -3.062664 -4e-06 1e-06
                        CHANNELS 3 Zrotation Yrotation Xrotation
                        JOINT RightHandPinky4
                        {
                          OFFSET -1.546529 4e-06 -2e-06
                          CHANNELS 3 Zrotation Yrotation Xrotation
                          JOINT RightHandPinkyEnd
                          {
                            OFFSET -1.945119 -0.157718 0.057211
                            CHANNELS 3 Zrotation Yrotation Xrotation
                          }
                        }
                      }
                    }
                  }
                }
              }
            }
          }
        }
      }
    }
    JOINT LeftLeg
    {
      OFFSET 10.043214 -8.434526 2.595655
      CHANNELS 3 Zrotation Yrotation Xrotation
      JOINT LeftShin
      {
        OFFSET -1e-06 -43.221752 -0.802913
        CHANNELS 3 Zrotation Yrotation Xrotation
        JOINT LeftFoot
        {
          OFFSET 1e-06 -42.155094 -3.481523
          CHANNELS 3 Zrotation Yrotation Xrotation
          JOINT LeftToeBase
          {
            OFFSET 0.0 -5.059472 13.231529
            CHANNELS 3 Zrotation Yrotation Xrotation
            JOINT LeftToeEnd
            {
              OFFSET -0.009607 -1.647619 6.513017
              CHANNELS 3 Zrotation Yrotation Xrotation
            }
          }
        }
      }
    }
    JOINT RightLeg
    {
      OFFSET -10.047278 -8.29526 2.620317
      CHANNELS 3 Zrotation Yrotation Xrotation
      JOINT RightShin
      {
        OFFSET 1e-06 -43.362206 -0.805556
        CHANNELS 3 Zrotation Yrotation Xrotation
        JOINT RightFoot
        {
          OFFSET 2e-06 -42.117393 -3.478398
          CHANNELS 3 Zrotation Yrotation Xrotation
          JOINT RightToeBase
          {
            OFFSET -0.0 -5.079609 13.284196
            CHANNELS 3 Zrotation Yrotation Xrotation
            JOINT RightToeEnd
            {
              OFFSET 0.009532 -1.634378 6.460591
              CHANNELS 3 Zrotation Yrotation Xrotation
            }
          }
        }
      }
    }
  }
}
MOTION
Frames: 4
Frame Time: 0.03333333333333333
0.0 0.0 0.0 0.0 -0.0 0.0 34.173088 94.408875 307.506226 4.109282 -3.18297 -4.023386 0.60315 0.769923 -1.051844 -0.173801 3.517008 -5.699101 -1.147765 1.270943 12.253594 -2.12147 3.046428 5.660917 -1.1734 -1.942687 -3.482661 4.0407 -5.178405 -6.571809 7.7e-05 -2.2e-05 6e-06 0.007644 0.061685 0.030609 0.725793 -3.672125 -10.599794 -0.718609 3.789121 -10.64369 -8.234341 -2.381057 16.792294 -71.546967 0.425345 30.360519 0.379286 -26.482859 -0.061137 4.950757 7.592595 -13.012704 -5.882108 9.861286 0.702591 -10.936876 -0.360577 7.156208 2e-06 8.774828 -1e-06 -16.344936 17.560902 5.88737 -1.844032 2.498505 -2.507277 -10.163603 4.678944 4.62111 -20.97603 -5e-06 5e-06 -21.226288 2.451698 -3.593995 -1e-06 -7e-06 0.0 -1.362681 2.240798 -0.746322 -21.334921 0.584908 3.008326 -13.821218 -3e-06 5e-06 -23.887175 -0.249078 -0.839478 -60.258949 2.551957 -0.81133 -0.294025 1.679687 0.833257 -14.218213 0.093213 1.300581 -34.212063 -0.287565 0.967175 -20.033218 0.964536 1.212847 -1e-06 1e-06 0.0 -3.44039 0.788233 0.501656 -15.928192 -3.167312 2.999708 -6.338829 -1e-06 2e-06 -18.123453 3.648184 -4.905667 -5e-06 -0.0 -2e-06 10.410628 17.361404 17.960426 57.077023 19.958902 6.032968 -0.244631 38.920517 0.305237 -11.537457 -2.060602 -22.530643 2.243542 -5.255036 -3.180157 14.28289 -0.826595 6.952499 -4e-06 -12.690605 1e-06 16.006157 -17.449032 2.882297 1.665666 -1.955921 -2.8783 4.727798 -4.170588 4.993924 11.020526 7e-06 -2e-06 12.109052 -3.735712 -2.866785 -1e-06 0.0 0.0 1.291986 -1.928548 -1.498089 14.800127 0.567468 3.865606 14.242574 -1.341735 -6.660658 19.631969 0.143928 -0.648246 50.37751 -0.582629 -5.898651 0.353029 -1.51115 -0.03194 20.22279 3.684309 2.316629 18.78727 7e-06 -1e-06 10.751627 -0.479867 1.397907 2e-06 1e-06 0.0 3.273806 0.305947 -0.580111 21.486809 11.830378 2.26613 8.162925 4e-06 -1e-06 18.39908 -3.798982 -4.940574 4e-06 1e-06 0.0 -5.385008 5.610215 -26.713568 -0.012477 -0.006523 19.931995 -3.700125 3.603356 5.549188 1.675397 -2.155735 -2.196712 -0.0 -0.0 2e-06 -5.817788 1.221204 18.656319 -0.178097 0.426287 30.832413 1.618891 0.868406 1.711397 -1.515757 0.727724 -25.993141 -0.0 -0.0 -2e-06 
0.0 0.0 0.0 0.0 -0.0 0.0 35.153313 94.697708 313.216187 6.046838 -2.384659 -4.896878 -0.384648 0.666478 -0.565584 -0.582048 3.352746 -5.482587 -1.969528 1.501323 12.014544 -1.556898 2.867265 5.809774 -1.410049 -2.503564 -3.418413 4.120454 -5.303636 -7.352344 7.7e-05 -2.2e-05 6e-06 0.007785 0.084 0.059335 0.72263 -3.633933 -10.511619 -0.715933 3.795946 -10.539964 -7.140971 -3.306402 16.933151 -71.802734 -1.0868 30.411787 0.308687 -27.074121 0.015126 5.001733 7.405582 -13.415926 -5.882108 9.86129 0.702589 -10.936873 -0.360575 7.156207 -1e-06 8.77483 -0.0 -16.434155 17.813177 5.705175 -1.844032 2.498505 -2.507278 -10.163601 4.678947 4.621109 -20.976027 -3e-06 2e-06 -21.226292 2.451698 -3.594002 -1e-06 -7e-06 -0.0 -1.362681 2.240799 -0.746323 -21.334917 0.58491 3.008323 -13.821216 -2e-06 2e-06 -23.887175 -0.249079 -0.839484 -60.278694 2.506928 -1.178242 -0.294025 1.679688 0.833256 -14.21821 0.093216 1.300582 -34.212048 -0.287563 0.967169 -20.033215 0.964537 1.212841 1e-06 0.0 -0.0 -3.440389 0.788234 0.501655 -15.928189 -3.16731 2.999709 -6.338828 -1e-06 1e-06 -18.123453 3.648184 -4.905674 -4e-06 0.0 -2e-06 9.554567 16.951159 17.971582 59.863766 18.400625 6.498191 -0.302985 35.777103 0.184977 -11.18982 -2.940646 -22.239744 2.243542 -5.255037 -3.180158 14.282896 -0.826595 6.952507 -1e-06 -12.69061 1e-06 16.251984 -17.5259 2.764258 1.665666 -1.95592 -2.8783 4.727801 -4.170592 4.993927 11.02053 2e-06 -0.0 12.109056 -3.735717 -2.866784 1e-06 -1e-06 1e-06 1.291986 -1.928548 -1.498089 14.800134 0.567466 3.865609 14.242577 -1.341738 -6.660661 19.631975 0.143924 -0.648246 50.386414 -0.441241 -5.916264 0.353029 -1.51115 -0.03194 20.222801 3.684308 2.316632 18.787281 4e-06 -1e-06 10.751633 -0.47987 1.397905 2e-06 1e-06 -2e-06 3.273808 0.305947 -0.580111 21.48682 11.830379 2.266134 8.16293 1e-06 -1e-06 18.399092 -3.79899 -4.940578 2e-06 -0.0 -1e-06 -7.830881 4.710717 -24.377424 -0.020758 -0.0327 24.047701 -2.42399 2.957072 3.29353 1.60939 -2.136504 -1.39477 0.0 -0.0 2e-06 -8.245335 1.369571 13.19738 -0.10649 0.618635 45.145889 2.16103 -0.810183 14.7745 -1.358861 0.648396 -22.497475 0.0 -0.0 -2e-06 
0.0 0.0 0.0 0.0 -0.0 0.0 35.886124 95.200478 318.347565 7.319841 -1.992527 -5.559924 -1.157859 0.576512 -0.03394 -0.767599 3.314755 -5.255723 -2.394614 1.288147 11.914522 -1.656764 3.26758 5.799775 -1.43765 -2.683237 -3.480101 4.050389 -5.566296 -7.757188 7.7e-05 -2.2e-05 6e-06 0.008375 0.111704 0.088203 0.716322 -3.616507 -10.488938 -0.711479 3.834163 -10.514501 -6.467691 -3.772226 16.678585 -71.493454 -3.169608 30.352592 0.343517 -27.704042 -0.094399 5.813442 7.220419 -13.722863 -5.88211 9.861289 0.702591 -10.936877 -0.360576 7.156206 1e-06 8.774828 -2e-06 -16.388783 17.902601 5.685851 -1.844033 2.498505 -2.507277 -10.163606 4.678946 4.621108 -20.976038 -4e-06 4e-06 -21.226299 2.451696 -3.594 -2e-06 -6e-06 -0.0 -1.362682 2.240799 -0.746322 -21.334929 0.584908 3.008324 -13.821223 -3e-06 3e-06 -23.887188 -0.249081 -0.839483 -60.292484 2.453266 -1.347892 -0.294025 1.679688 0.833256 -14.218218 0.093214 1.30058 -34.212074 -0.287567 0.967171 -20.03323 0.964535 1.212845 0.0 -0.0 -1e-06 -3.44039 0.788233 0.501656 -15.928198 -3.167312 2.999707 -6.33883 -2e-06 2e-06 -18.123459 3.648183 -4.905671 -2e-06 1e-06 -2e-06 9.120515 16.81241 18.153111 61.717178 17.412632 7.131317 -0.152905 31.837509 0.136898 -9.881546 -4.185854 -20.434803 2.243542 -5.255036 -3.180159 14.282896 -0.826595 6.952507 -2e-06 -12.690608 -1e-06 16.374956 -17.547367 2.732213 1.665667 -1.955922 -2.878299 4.727799 -4.170587 4.993925 11.020529 4e-06 -0.0 12.109055 -3.735714 -2.866785 0.0 -0.0 1e-06 1.291986 -1.92855 -1.498089 14.800132 0.567466 3.865608 14.242577 -1.341734 -6.660659 19.631973 0.143926 -0.648244 50.244347 -0.388192 -6.004031 0.353029 -1.51115 -0.031939 20.222797 3.684309 2.31663 18.787279 6e-06 -0.0 10.751629 -0.479869 1.397905 2e-06 -0.0 1e-06 3.273808 0.305947 -0.580111 21.486818 11.830378 2.266132 8.16293 1e-06 -2e-06 18.399086 -3.798985 -4.940575 2e-06 -0.0 -1e-06 -9.612599 5.187549 -20.826286 0.039334 0.205264 25.432041 -0.438902 2.268344 0.260834 1.621881 -2.128239 -0.770188 -0.0 0.0 2e-06 -9.208499 2.799586 6.321345 -0.01096 0.541543 57.973415 3.056466 -2.696428 25.625166 -1.180902 0.869251 -6.430432 -0.0 0.0 -1e-06 
0.0 0.0 0.0 0.0 -0.0 0.0 36.428764 96.091217 323.234253 7.693675 -1.819511 -6.121909 -1.532844 0.520684 0.405686 -0.891183 2.998719 -5.126017 -2.247476 0.93744 12.026281 -1.996917 3.590871 5.962411 -1.417835 -2.688473 -3.489466 3.894096 -5.333825 -8.438647 7.7e-05 -2.2e-05 6e-06 0.010998 0.149172 0.084622 0.715303 -3.586114 -10.497579 -0.705981 3.882827 -10.522505 -6.194434 -3.972297 16.475491 -70.505432 -5.895699 30.496525 0.355588 -28.186092 -0.156738 7.173418 7.123214 -13.751892 -5.882112 9.861295 0.702592 -10.936881 -0.360575 7.15621 -0.0 8.774834 0.0 -16.40591 18.162144 5.786879 -1.844033 2.498507 -2.507277 -10.16361 4.67895 4.621111 -20.97604 -2e-06 3e-06 -21.226303 2.451701 -3.594004 0.0 -7e-06 -1e-06 -1.362683 2.2408 -0.746324 -21.33493 0.584912 3.008326 -13.821225 -2e-06 2e-06 -23.887188 -0.249076 -0.839485 -60.376625 2.461321 -1.410016 -0.294025 1.679689 0.833256 -14.218221 0.093216 1.300581 -34.212078 -0.287561 0.967171 -20.033232 0.964537 1.212843 -0.0 -0.0 -1e-06 -3.440392 0.788234 0.501655 -15.928203 -3.167312 2.99971 -6.338833 -1e-06 2e-06 -18.123463 3.648188 -4.905676 -3e-06 0.0 -2e-06 9.183045 16.591156 18.542831 62.622692 16.567711 8.243103 0.028738 28.305429 0.058195 -8.870207 -5.205738 -18.264164 2.243543 -5.25504 -3.180158 14.282896 -0.826598 6.952506 -1e-06 -12.69061 -0.0 16.497292 -17.472191 2.618614 1.665666 -1.955923 -2.878299 4.727801 -4.170589 4.993926 11.020531 1e-06 -1e-06 12.109058 -3.735717 -2.866784 1e-06 0.0 -1e-06 1.291985 -1.92855 -1.49809 14.800136 0.567467 3.86561 14.242578 -1.341739 -6.660662 19.631973 0.143923 -0.648246 50.148239 -0.360237 -6.053608 0.353029 -1.511151 -0.03194 20.222801 3.684309 2.316633 18.787279 2e-06 1e-06 10.751634 -0.479871 1.397907 2e-06 0.0 1e-06 3.273808 0.305946 -0.580111 21.48682 11.830379 2.266135 8.16293 1e-06 -1e-06 18.39909 -3.798988 -4.94058 5e-06 1e-06 -0.0 -10.223463 5.424863 -16.100613 0.093237 0.208179 24.032438 0.436478 2.264455 -2.52402 1.605872 -2.125432 -0.335133 0.0 0.0 2e-06 -8.819009 4.071232 -0.388302 -0.001834 0.296944 67.985664 1.689893 -4.361855 23.155514 -1.287242 0.942454 -3.639152 -0.0 0.0 -1e-06 
